<svg xmlns="http://www.w3.org/2000/svg" width="32" height="32" viewBox="0 0 80 80" preserveAspectRatio="xMidYMid meet">
    <g transform="translate(0,80) scale(0.1,-0.1)" fill="#FFFFFF" stroke="none">
        <path d="M565 606 l-169 -63 -45 29 c-69 44 -122 39 -230 -18 -47 -25 -90 -48 -94 -51 -4 -2 11 -17 33 -32 54 -36 115 -128 136 -203 11 -40 25 -65 41 -75 32 -21 38 -12 23 34 -38 116 -102 205 -179 252 -31 18 -33 21 -15 27 10 3 48 19 83 35 68 31 95 35 136 19 29 -11 64 -48 65 -67 0 -7 2 -13 4 -13 6 0 80 32 166 73 201 94 250 112 250 91 0 -4 -20 -37 -43 -73 -54 -81 -158 -277 -187 -350 -19 -49 -19 -53 -3 -46 10 4 25 9 34 12 10 3 23 25 30 51 7 26 28 77 46 115 18 37 33 70 33 73 0 3 23 51 52 108 51 104 56 137 21 135 -10 0 -94 -29 -188 -63z"/>
        <path d="M188 503 c-10 -2 -18 -8 -18 -13 0 -14 51 -21 66 -9 8 6 25 8 41 4 23 -5 25 -4 14 9 -13 15 -63 20 -103 9z"/>
    </g>
</svg>
